<svg width="168" height="168" viewBox="0 0 168 168" fill="none" xmlns="http://www.w3.org/2000/svg">
<g filter="url(#filter0_dd_9_1787)">
<circle cx="84" cy="68" r="56" fill="#042F2E"/>
<path d="M57.4 97L68.25 52.05L91.5 47.4L107 62.9L102.35 86.15L57.4 97ZM57.4 97L80.9166 73.4834M110.1 66L88.4 44.3L97.7 35L119.4 56.7L110.1 66ZM85.3 62.9C88.7242 62.9 91.5 65.6758 91.5 69.1C91.5 72.5242 88.7242 75.3 85.3 75.3C81.8759 75.3 79.1 72.5242 79.1 69.1C79.1 65.6758 81.8759 62.9 85.3 62.9Z" stroke="#F9F7F3" stroke-width="4" stroke-linecap="round" stroke-linejoin="round"/>
</g>
<defs>
<filter id="filter0_dd_9_1787" x="0" y="0" width="168" height="168" filterUnits="userSpaceOnUse" color-interpolation-filters="sRGB">
<feFlood flood-opacity="0" result="BackgroundImageFix"/>
<feColorMatrix in="SourceAlpha" type="matrix" values="0 0 0 0 0 0 0 0 0 0 0 0 0 0 0 0 0 0 127 0" result="hardAlpha"/>
<feMorphology radius="4" operator="erode" in="SourceAlpha" result="effect1_dropShadow_9_1787"/>
<feOffset dy="4"/>
<feGaussianBlur stdDeviation="2"/>
<feComposite in2="hardAlpha" operator="out"/>
<feColorMatrix type="matrix" values="0 0 0 0 0.0470588 0 0 0 0 0.0470588 0 0 0 0 0.0509804 0 0 0 0.05 0"/>
<feBlend mode="normal" in2="BackgroundImageFix" result="effect1_dropShadow_9_1787"/>
<feColorMatrix in="SourceAlpha" type="matrix" values="0 0 0 0 0 0 0 0 0 0 0 0 0 0 0 0 0 0 127 0" result="hardAlpha"/>
<feMorphology radius="4" operator="erode" in="SourceAlpha" result="effect2_dropShadow_9_1787"/>
<feOffset dy="16"/>
<feGaussianBlur stdDeviation="16"/>
<feComposite in2="hardAlpha" operator="out"/>
<feColorMatrix type="matrix" values="0 0 0 0 0.0470588 0 0 0 0 0.0470588 0 0 0 0 0.0509804 0 0 0 0.1 0"/>
<feBlend mode="normal" in2="effect1_dropShadow_9_1787" result="effect2_dropShadow_9_1787"/>
<feBlend mode="normal" in="SourceGraphic" in2="effect2_dropShadow_9_1787" result="shape"/>
</filter>
</defs>
</svg>
